<svg width="25" height="26" viewBox="0 0 25 26" fill="none" xmlns="http://www.w3.org/2000/svg">
<g id="blank-calendar--blank-calendar-date-day-month-empty">
<g id="blank-calendar--blank-calendar-date-day-month-empty_2">
<g id="Vector">
<path d="M3.07143 4.42857C2.61676 4.42857 2.18073 4.60918 1.85924 4.93066C1.53775 5.25216 1.35714 5.68819 1.35714 6.14285V22.4286C1.35714 22.8832 1.53775 23.3193 1.85924 23.6407C2.18073 23.9622 2.61676 24.1429 3.07143 24.1429H21.9286C22.3832 24.1429 22.8193 23.9622 23.1407 23.6407C23.4622 23.3193 23.6429 22.8832 23.6429 22.4286V6.14285C23.6429 5.68819 23.4622 5.25216 23.1407 4.93066C22.8193 4.60918 22.3832 4.42857 21.9286 4.42857H18.5" fill="#F7F7FA"/>
<path d="M3.07143 4.42857C2.61676 4.42857 2.18073 4.60918 1.85924 4.93066C1.53775 5.25216 1.35714 5.68819 1.35714 6.14285V22.4286C1.35714 22.8832 1.53775 23.3193 1.85924 23.6407C2.18073 23.9622 2.61676 24.1429 3.07143 24.1429H21.9286C22.3832 24.1429 22.8193 23.9622 23.1407 23.6407C23.4622 23.3193 23.6429 22.8832 23.6429 22.4286V6.14285C23.6429 5.68819 23.4622 5.25216 23.1407 4.93066C22.8193 4.60918 22.3832 4.42857 21.9286 4.42857H18.5" stroke="black" stroke-width="2" stroke-linecap="round" stroke-linejoin="round"/>
</g>
<g id="Vector_2">
<path d="M1.35714 10.4286H23.6429H1.35714Z" fill="#F7F7FA"/>
<path d="M1.35714 10.4286H23.6429" stroke="black" stroke-width="2" stroke-linecap="round" stroke-linejoin="round"/>
</g>
<g id="Vector_3">
<path d="M6.5 1.85714V7V1.85714Z" fill="#F7F7FA"/>
<path d="M6.5 1.85714V7" stroke="black" stroke-width="2" stroke-linecap="round" stroke-linejoin="round"/>
</g>
<g id="Vector_4">
<path d="M18.5 1.85714V7V1.85714Z" fill="#F7F7FA"/>
<path d="M18.5 1.85714V7" stroke="black" stroke-width="2" stroke-linecap="round" stroke-linejoin="round"/>
</g>
<g id="Vector_5">
<path d="M6.5 4.42857H15.0714H6.5Z" fill="#F7F7FA"/>
<path d="M6.5 4.42857H15.0714" stroke="black" stroke-width="2" stroke-linecap="round" stroke-linejoin="round"/>
</g>
</g>
</g>
</svg>
