<svg width="46" height="46" viewBox="0 0 46 46" fill="none" xmlns="http://www.w3.org/2000/svg">
<g id="horizontal-menu-circle--navigation-dots-three-circle-button-horizontal-menu">
<g id="horizontal-menu-circle--navigation-dots-three-circle-button-horizontal-menu_2">
<g id="Group 2606">
<path id="Ellipse 1111" d="M13.1429 23.8214C12.6892 23.8214 12.3214 23.4537 12.3214 23C12.3214 22.5464 12.6892 22.1786 13.1429 22.1786" stroke="black" stroke-width="3" stroke-linecap="round" stroke-linejoin="round"/>
<path id="Ellipse 1112" d="M13.1429 23.8214C13.5965 23.8214 13.9643 23.4537 13.9643 23C13.9643 22.5464 13.5965 22.1786 13.1429 22.1786" stroke="black" stroke-width="3" stroke-linecap="round" stroke-linejoin="round"/>
</g>
<g id="Group 2632">
<path id="Ellipse 1111_2" d="M23 23.8214C22.5464 23.8214 22.1786 23.4537 22.1786 23C22.1786 22.5464 22.5464 22.1786 23 22.1786" stroke="black" stroke-width="3" stroke-linecap="round" stroke-linejoin="round"/>
<path id="Ellipse 1112_2" d="M23 23.8214C23.4537 23.8214 23.8215 23.4537 23.8215 23C23.8215 22.5464 23.4537 22.1786 23 22.1786" stroke="black" stroke-width="3" stroke-linecap="round" stroke-linejoin="round"/>
</g>
<g id="Group 2633">
<path id="Ellipse 1111_3" d="M32.8572 23.8214C32.4035 23.8214 32.0357 23.4537 32.0357 23C32.0357 22.5464 32.4035 22.1786 32.8572 22.1786" stroke="black" stroke-width="3" stroke-linecap="round" stroke-linejoin="round"/>
<path id="Ellipse 1112_3" d="M32.8572 23.8214C33.3109 23.8214 33.6786 23.4537 33.6786 23C33.6786 22.5464 33.3109 22.1786 32.8572 22.1786" stroke="black" stroke-width="3" stroke-linecap="round" stroke-linejoin="round"/>
</g>
</g>
</g>
</svg>
