<svg width="25" height="24" viewBox="0 0 25 24" fill="none" xmlns="http://www.w3.org/2000/svg">
<g id="hand-held-tablet-writing--tablet-kindle-device-electronics-ipad-writing-digital-paper-notepad" clip-path="url(#clip0_31_99)">
<g id="hand-held-tablet-writing--tablet-kindle-device-electronics-ipad-writing-digital-paper-notepad_2">
<g id="Vector">
<path d="M14.2143 0.85714H3.07143C2.12465 0.85714 1.35714 1.62465 1.35714 2.57143V21.4286C1.35714 22.3754 2.12465 23.1429 3.07143 23.1429H18.5C19.4468 23.1429 20.2143 22.3754 20.2143 21.4286V13.7143" fill="#EFEEEB"/>
<path d="M14.2143 0.85714H3.07143C2.12465 0.85714 1.35714 1.62465 1.35714 2.57143V21.4286C1.35714 22.3754 2.12465 23.1429 3.07143 23.1429H18.5C19.4468 23.1429 20.2143 22.3754 20.2143 21.4286V13.7143" stroke="black" stroke-width="2" stroke-linecap="round" stroke-linejoin="round"/>
</g>
<path id="Vector_2" d="M1.35714 18H20.2143" stroke="black" stroke-width="2" stroke-linecap="round" stroke-linejoin="round"/>
<path id="Vector_3" d="M6.5 5.14285H9.92857" stroke="black" stroke-width="2" stroke-linecap="round" stroke-linejoin="round"/>
<path id="Vector_4" d="M6.5 9.42857H8.21429" stroke="black" stroke-width="2" stroke-linecap="round" stroke-linejoin="round"/>
<path id="Vector_5" d="M15.9185 12.8671L10.7757 13.7928L11.6328 8.58137L18.8842 1.36422C19.0436 1.20355 19.2332 1.07601 19.4422 0.98898C19.651 0.901948 19.875 0.85714 20.1013 0.85714C20.3278 0.85714 20.5518 0.901948 20.7606 0.98898C20.9696 1.07601 21.1592 1.20355 21.3185 1.36422L23.1356 3.18137C23.2964 3.34073 23.4239 3.53033 23.5109 3.73923C23.5979 3.94813 23.6427 4.17221 23.6427 4.39851C23.6427 4.62481 23.5979 4.84889 23.5109 5.05777C23.4239 5.26668 23.2964 5.45629 23.1356 5.61565L15.9185 12.8671Z" fill="#EFEEEB" stroke="black" stroke-width="2" stroke-linecap="round" stroke-linejoin="round"/>
</g>
</g>
<defs>
<clipPath id="clip0_31_99">
<rect width="24" height="24" fill="white" transform="translate(0.5)"/>
</clipPath>
</defs>
</svg>
