<svg width="43" height="30" viewBox="0 0 43 30" fill="none" xmlns="http://www.w3.org/2000/svg">
<g id="group">
<g id="user-multiple-group--close-geometric-human-multiple-person-up-user">
<path id="Vector" d="M21.5 12.6665C24.7487 12.6665 27.3824 10.0548 27.3824 6.83323C27.3824 3.61163 24.7487 1 21.5 1C18.2513 1 15.6176 3.61163 15.6176 6.83323C15.6176 10.0548 18.2513 12.6665 21.5 12.6665Z" stroke="black" stroke-width="2" stroke-linecap="round" stroke-linejoin="round"/>
<path id="Vector_2" d="M10.9118 28.9995H21.5H32.0882V27.7346C32.0695 25.9562 31.5965 24.2113 30.7135 22.6634C29.8304 21.1153 28.5661 19.8145 27.0387 18.8824C25.5112 17.9502 23.7704 17.4172 21.9789 17.3331C21.8191 17.3256 21.6595 17.3217 21.5 17.3214C21.3405 17.3217 21.1808 17.3256 21.0211 17.3331C19.2296 17.4172 17.4888 17.9502 15.9613 18.8824C14.4339 19.8145 13.1696 21.1153 12.2865 22.6634C11.4035 24.2113 10.9305 25.9562 10.9118 27.7346V28.9995Z" stroke="black" stroke-width="2" stroke-linecap="round" stroke-linejoin="round"/>
<path id="Vector_3" d="M30.9118 12.6665C34.1605 12.6665 36.7941 10.0548 36.7941 6.83323C36.7941 3.61163 34.1605 1 30.9118 1" stroke="black" stroke-width="2" stroke-linecap="round" stroke-linejoin="round"/>
<path id="Vector_4" d="M36.7941 29H41.5V27.7349C41.4812 25.9565 41.0082 24.2116 40.1252 22.6637C39.2421 21.1156 37.9779 19.8148 36.4504 18.8827C35.4631 18.2801 34.3864 17.8443 33.2647 17.5888" stroke="black" stroke-width="2" stroke-linecap="round" stroke-linejoin="round"/>
<path id="Vector_3_2" d="M12.0882 12.6665C8.83954 12.6665 6.20589 10.0548 6.20589 6.83323C6.20589 3.61163 8.83954 1 12.0882 1" stroke="black" stroke-width="2" stroke-linecap="round" stroke-linejoin="round"/>
<path id="Vector_4_2" d="M6.20588 28.9778H1.5V27.7127C1.51882 25.9342 1.99176 24.1894 2.87482 22.6415C3.75788 21.0934 5.02211 19.7926 6.54964 18.8605C7.53694 18.2579 8.61364 17.8221 9.73529 17.5666" stroke="black" stroke-width="2" stroke-linecap="round" stroke-linejoin="round"/>
</g>
</g>
</svg>
