<svg width="29" height="28" viewBox="0 0 29 28" fill="none" xmlns="http://www.w3.org/2000/svg">
<g id="cog--work-loading-cog-gear-settings-machine">
<g id="cog--work-loading-cog-gear-settings-machine_2">
<path id="Vector" d="M10.9601 4.5L11.8201 2.28C11.9651 1.90413 12.2203 1.58082 12.5522 1.35242C12.8841 1.12403 13.2772 1.00119 13.6801 1H15.3201C15.723 1.00119 16.1161 1.12403 16.448 1.35242C16.7799 1.58082 17.035 1.90413 17.1801 2.28L18.0401 4.5L20.96 6.18L23.32 5.82C23.713 5.76666 24.113 5.83134 24.4692 6.00584C24.8252 6.18034 25.1214 6.45676 25.32 6.8L26.12 8.2C26.325 8.5487 26.4196 8.95136 26.391 9.35484C26.3624 9.75832 26.2122 10.1437 25.96 10.46L24.5 12.32V15.68L26 17.54C26.2522 17.8563 26.4024 18.2417 26.431 18.6452C26.4596 19.0486 26.365 19.4513 26.16 19.8L25.36 21.2C25.1614 21.5432 24.8652 21.8196 24.5092 21.9942C24.153 22.1686 23.753 22.2334 23.36 22.18L21 21.82L18.0801 23.5L17.2201 25.72C17.075 26.0958 16.8199 26.4192 16.488 26.6476C16.1561 26.876 15.763 26.9988 15.3601 27H13.6801C13.2772 26.9988 12.8841 26.876 12.5522 26.6476C12.2203 26.4192 11.9651 26.0958 11.8201 25.72L10.9601 23.5L8.04008 21.82L5.68008 22.18C5.28712 22.2334 4.88716 22.1686 4.53104 21.9942C4.17494 21.8196 3.87874 21.5432 3.68008 21.2L2.88008 19.8C2.67508 19.4513 2.58064 19.0486 2.6092 18.6452C2.63776 18.2417 2.788 17.8563 3.04008 17.54L4.50008 15.68V12.32L3.00008 10.46C2.748 10.1437 2.59776 9.75832 2.5692 9.35484C2.54064 8.95136 2.63508 8.5487 2.84008 8.2L3.64008 6.8C3.83874 6.45676 4.13494 6.18034 4.49104 6.00584C4.84716 5.83134 5.24712 5.76666 5.64008 5.82L8.00008 6.18L10.9601 4.5ZM10.5001 14C10.5001 14.7911 10.7347 15.5645 11.1742 16.2223C11.6137 16.8801 12.2384 17.3928 12.9693 17.6955C13.7003 17.9983 14.5045 18.0775 15.2804 17.9231C16.0564 17.7688 16.7691 17.3878 17.3285 16.8284C17.8879 16.269 18.2689 15.5563 18.4232 14.7804C18.5776 14.0044 18.4984 13.2002 18.1956 12.4693C17.8929 11.7384 17.3802 11.1136 16.7224 10.6741C16.0646 10.2346 15.2912 10 14.5001 10C13.4392 10 12.4218 10.4214 11.6717 11.1716C10.9215 11.9217 10.5001 12.9391 10.5001 14Z" stroke="black" stroke-width="2" stroke-linecap="round" stroke-linejoin="round"/>
</g>
</g>
</svg>
