<svg width="29" height="28" viewBox="0 0 29 28" fill="none" xmlns="http://www.w3.org/2000/svg">
<g id="home-3--home-house-roof-shelter">
<path id="Vector" d="M27.5 13.88C27.502 13.6024 27.446 13.3274 27.3358 13.0726C27.2256 12.8178 27.0636 12.5887 26.86 12.4L14.5 1L2.14004 12.4C1.93649 12.5887 1.77447 12.8178 1.66429 13.0726C1.5541 13.3274 1.49817 13.6024 1.50005 13.88V25C1.50005 25.5304 1.71076 26.0392 2.08583 26.4142C2.4609 26.7892 2.96962 27 3.50004 27H25.5C26.0304 27 26.5392 26.7892 26.9142 26.4142C27.2894 26.0392 27.5 25.5304 27.5 25V13.88Z" stroke="black" stroke-width="2" stroke-linecap="round" stroke-linejoin="round"/>
<path id="Vector_2" d="M14.5 27V19" stroke="black" stroke-width="2" stroke-linecap="round" stroke-linejoin="round"/>
</g>
</svg>
